# xmcd CD database file
#
# Track frame offsets:
#	150
#	17690
#	50643
#	72954
#	98101
#	122069
#	139466
#	162000
#	184318
#	198636
#	215607
#	239665
#	267540
#	310012
#	328179
#
# Disc length: 4655 seconds
#
# Revision: 0
# Processed by: cddbd v1.5.2PL0 Copyright (c) Steve Scherf et al.
# Submitted via: CDex 1.70beta1
#
DISCID=ec122d0f
DTITLE=Chris Botti - Chris Botti Live
DYEAR=2006
DGENRE=Jazz
TTITLE0=Someone To Watch Over Me
TTITLE1=When I Fall In Love
TTITLE2=A Thousand Kisses Deep
TTITLE3=What Are You Doing
TTITLE4=Good Morning Heartache
TTITLE5=My One and Only Love
TTITLE6=The Look of Love
TTITLE7=Cinema Paradiso
TTITLE8=Pennies From Heaven
TTITLE9=Are You Lonesome Tonight
TTITLE10=Lover Man
TTITLE11=My Funny Valentine
TTITLE12=Why Not
TTITLE13=One For My Baby
TTITLE14=Message in a Bottle
EXTD=YEAR: 2006
EXTT0=
EXTT1=
EXTT2=
EXTT3=
EXTT4=
EXTT5=
EXTT6=
EXTT7=
EXTT8=
EXTT9=
EXTT10=
EXTT11=
EXTT12=
EXTT13=
EXTT14=
PLAYORDER=
